<?xml version="1.0" standalone="no"?>
<!DOCTYPE svg PUBLIC "-//W3C//DTD SVG 20010904//EN"
 "http://www.w3.org/TR/2001/REC-SVG-20010904/DTD/svg10.dtd">
<svg version="1.0" xmlns="http://www.w3.org/2000/svg"
 width="370.000000pt" height="370.000000pt" viewBox="0 0 370.000000 370.000000"
 preserveAspectRatio="xMidYMid meet">
<metadata>
Created by potrace 1.14, written by Peter Selinger 2001-2017
</metadata>
<g transform="translate(0.000000,370.000000) scale(0.100000,-0.100000)"
fill="#000000" stroke="none">
<path d="M487 2873 c-18 -17 -1 -23 63 -23 56 0 70 3 70 15 0 12 -14 15 -63
15 -35 0 -67 -3 -70 -7z"/>
<path d="M917 2873 c-18 -17 -1 -23 63 -23 56 0 70 3 70 15 0 12 -14 15 -63
15 -35 0 -67 -3 -70 -7z"/>
<path d="M1060 2865 c0 -12 14 -15 71 -15 52 0 70 3 67 13 -3 7 -29 13 -71 15
-55 2 -67 0 -67 -13z"/>
<path d="M1347 2873 c-18 -17 -1 -23 63 -23 56 0 70 3 70 15 0 12 -14 15 -63
15 -35 0 -67 -3 -70 -7z"/>
<path d="M1490 2865 c0 -12 14 -15 71 -15 52 0 70 3 67 13 -3 7 -29 13 -71 15
-55 2 -67 0 -67 -13z"/>
<path d="M2500 2864 c0 -12 34 -14 210 -14 177 0 210 2 210 15 0 12 -33 14
-210 14 -176 0 -210 -3 -210 -15z"/>
<path d="M2930 2865 c0 -12 14 -15 71 -15 52 0 70 3 67 13 -3 7 -29 13 -71 15
-55 2 -67 0 -67 -13z"/>
<path d="M387 2723 c-2 -5 -2 -25 0 -45 8 -64 42 -40 43 30 0 15 -6 22 -19 22
-11 0 -22 -3 -24 -7z"/>
<path d="M2547 2723 c-2 -5 -2 -25 0 -45 8 -64 42 -40 43 30 0 15 -6 22 -19
22 -11 0 -22 -3 -24 -7z"/>
<path d="M246 2626 c-31 -52 -56 -97 -56 -100 0 -3 6 -6 14 -6 12 0 126 176
126 194 0 3 -6 6 -14 6 -7 0 -39 -42 -70 -94z"/>
<path d="M622 2713 c2 -4 29 -50 58 -100 50 -85 57 -93 85 -93 27 0 35 9 85
95 30 52 57 95 60 94 3 0 29 -42 59 -94 30 -52 61 -95 68 -95 22 0 14 21 -41
110 -46 75 -56 85 -84 88 -28 3 -35 -2 -59 -43 -16 -25 -42 -68 -58 -95 l-30
-49 -56 92 c-31 52 -63 93 -73 95 -10 2 -16 0 -14 -5z"/>
<path d="M1202 2713 c70 -133 140 -226 137 -180 -1 25 -106 182 -123 185 -10
2 -16 0 -14 -5z"/>
<path d="M1342 2713 c70 -133 140 -226 137 -180 -1 25 -106 182 -123 185 -10
2 -16 0 -14 -5z"/>
<path d="M1655 2674 c74 -129 91 -154 102 -154 7 0 13 6 12 13 -1 25 -106 182
-124 186 -16 3 -15 -3 10 -45z"/>
<path d="M2406 2626 c-31 -52 -56 -97 -56 -100 0 -3 6 -6 14 -6 12 0 126 176
126 194 0 3 -6 6 -14 6 -7 0 -39 -42 -70 -94z"/>
<path d="M3095 2674 c74 -129 91 -154 102 -154 7 0 13 6 12 13 -1 25 -106 182
-124 186 -16 3 -15 -3 10 -45z"/>
<path d="M2646 2533 c-18 -19 7 -23 134 -23 116 0 140 2 140 15 0 12 -23 14
-134 14 -73 0 -136 -3 -140 -6z"/>
<path d="M2930 2525 c0 -12 14 -15 71 -15 52 0 70 3 67 13 -3 7 -29 13 -71 15
-55 2 -67 0 -67 -13z"/>
<path d="M147 2358 c-12 -19 -87 -142 -104 -170 -2 -5 4 -8 14 -8 12 0 36 31
73 95 30 52 57 95 60 95 3 0 30 -43 60 -95 30 -52 60 -95 67 -95 22 0 14 21
-41 110 -46 74 -56 85 -84 88 -23 2 -34 -2 -45 -20z"/>
<path d="M821 2280 c33 -55 67 -100 75 -100 8 0 14 2 14 5 0 3 -26 48 -57 100
-37 62 -64 95 -75 95 -14 0 -4 -22 43 -100z"/>
<path d="M1064 2363 c18 -46 109 -183 123 -183 18 0 19 -3 -47 108 -30 51 -61
92 -68 92 -9 0 -12 -6 -8 -17z"/>
<path d="M1365 2334 c74 -129 91 -154 102 -154 7 0 13 6 12 13 -1 25 -106 182
-124 186 -16 3 -15 -3 10 -45z"/>
<path d="M1541 2280 c33 -55 67 -100 75 -100 8 0 14 2 14 5 0 3 -26 48 -57
100 -37 62 -64 95 -75 95 -14 0 -4 -22 43 -100z"/>
<path d="M1784 2363 c18 -46 109 -183 123 -183 18 0 19 -3 -47 108 -30 51 -61
92 -68 92 -9 0 -12 -6 -8 -17z"/>
<path d="M2307 2358 c-12 -19 -87 -142 -104 -170 -2 -5 4 -8 14 -8 12 0 36 31
73 95 30 52 57 95 60 95 3 0 30 -43 60 -95 30 -52 60 -95 67 -95 22 0 14 21
-41 110 -46 74 -56 85 -84 88 -23 2 -34 -2 -45 -20z"/>
<path d="M2665 2334 c99 -173 88 -164 193 -164 48 0 62 3 62 15 0 11 -17 15
-72 17 l-72 3 -51 85 c-29 48 -59 87 -70 89 -16 3 -15 -3 10 -45z"/>
<path d="M3128 2288 l-55 -91 -72 2 c-59 2 -71 0 -71 -13 0 -13 12 -16 63 -16
98 0 102 3 162 105 30 51 55 96 55 99 0 3 -6 6 -14 6 -7 0 -38 -41 -68 -92z"/>
<path d="M534 2195 c4 -22 3 -35 -4 -35 -5 0 -10 -4 -10 -10 0 -20 37 -9 49
14 17 31 6 66 -21 66 -18 0 -19 -4 -14 -35z"/>
<path d="M340 2185 c0 -12 14 -15 71 -15 52 0 70 3 67 13 -3 7 -29 13 -71 15
-55 2 -67 0 -67 -13z"/>
<path d="M3107 2044 c-8 -9 40 -47 54 -42 5 2 1 13 -11 26 -21 23 -32 27 -43
16z"/>
<path d="M3250 2042 c0 -15 36 -42 55 -42 17 0 16 3 -5 25 -23 24 -50 33 -50
17z"/>
<path d="M54 2023 c4 -9 29 -54 57 -100 45 -73 54 -83 79 -83 26 0 35 10 85
94 30 52 55 97 55 100 0 3 -6 6 -14 6 -8 0 -38 -40 -67 -90 -29 -49 -56 -90
-60 -90 -4 0 -31 41 -60 90 -29 50 -60 90 -67 90 -9 0 -12 -6 -8 -17z"/>
<path d="M538 1949 l-55 -92 -72 2 c-59 2 -71 0 -71 -13 0 -13 12 -16 63 -16
98 0 102 3 164 107 l56 94 56 -95 c30 -53 61 -96 68 -96 22 0 14 21 -41 110
-45 73 -56 85 -83 88 -28 3 -33 -3 -85 -89z"/>
<path d="M932 1999 c74 -130 93 -159 105 -159 7 0 13 6 12 13 -1 25 -106 182
-124 186 -16 3 -15 -2 7 -40z"/>
<path d="M1225 1994 c74 -129 91 -154 102 -154 7 0 13 6 12 13 -1 25 -106 182
-124 186 -16 3 -15 -3 10 -45z"/>
<path d="M1494 2023 c18 -45 109 -183 122 -183 8 0 14 3 14 6 0 17 -117 194
-129 194 -8 0 -11 -6 -7 -17z"/>
<path d="M1652 1999 c74 -130 93 -159 105 -159 7 0 13 6 12 13 -1 25 -106 182
-124 186 -16 3 -15 -2 7 -40z"/>
<path d="M1945 1994 c99 -173 88 -164 193 -164 50 0 62 3 62 16 0 13 -11 15
-69 12 l-69 -3 -54 90 c-32 52 -62 91 -73 94 -16 3 -15 -3 10 -45z"/>
<path d="M2214 2023 c18 -45 109 -183 122 -183 8 0 14 3 14 6 0 17 -117 194
-129 194 -8 0 -11 -6 -7 -17z"/>
<path d="M2551 1940 c34 -56 67 -100 76 -100 18 0 19 -3 -47 108 -35 60 -60
92 -72 92 -14 0 -5 -21 43 -100z"/>
<path d="M3385 1994 c74 -129 91 -154 102 -154 7 0 13 6 12 13 -1 25 -106 182
-124 186 -16 3 -15 -3 10 -45z"/>
<path d="M2930 1845 c0 -12 14 -15 71 -15 52 0 70 3 67 13 -3 7 -29 13 -71 15
-55 2 -67 0 -67 -13z"/>
<path d="M482 1693 c70 -133 140 -226 137 -180 -1 25 -106 182 -123 185 -10 2
-16 0 -14 -5z"/>
<path d="M774 1683 c18 -46 109 -183 123 -183 18 0 19 -3 -47 108 -30 51 -61
92 -68 92 -9 0 -12 -6 -8 -17z"/>
<path d="M1064 1683 c18 -46 109 -183 123 -183 18 0 19 -3 -47 108 -30 51 -61
92 -68 92 -9 0 -12 -6 -8 -17z"/>
<path d="M1365 1654 c74 -129 91 -154 102 -154 7 0 13 6 12 13 -1 25 -106 182
-124 186 -16 3 -15 -3 10 -45z"/>
<path d="M2372 1659 c74 -130 93 -159 105 -159 7 0 13 6 12 13 -1 25 -106 182
-124 186 -16 3 -15 -2 7 -40z"/>
<path d="M2642 1693 c70 -133 140 -226 137 -180 -1 25 -106 182 -123 185 -10
2 -16 0 -14 -5z"/>
<path d="M2934 1683 c18 -46 109 -183 123 -183 18 0 19 -3 -47 108 -30 51 -61
92 -68 92 -9 0 -12 -6 -8 -17z"/>
<path d="M3090 1605 l0 -95 55 0 c42 0 55 3 55 15 0 11 -11 15 -40 15 l-40 0
0 80 c0 64 -3 80 -15 80 -12 0 -15 -17 -15 -95z"/>
<path d="M3224 1683 c18 -46 109 -183 123 -183 18 0 19 -3 -47 108 -30 51 -61
92 -68 92 -9 0 -12 -6 -8 -17z"/>
<path d="M3525 1654 c74 -129 91 -154 102 -154 7 0 13 6 12 13 -1 25 -106 182
-124 186 -16 3 -15 -3 10 -45z"/>
<path d="M1974 1515 c4 -22 3 -35 -4 -35 -5 0 -10 -4 -10 -10 0 -17 26 -11 45
10 23 26 13 70 -16 70 -19 0 -20 -4 -15 -35z"/>
<path d="M1490 1505 c0 -12 24 -15 140 -15 116 0 140 3 140 15 0 12 -24 14
-140 14 -116 0 -140 -2 -140 -14z"/>
<path d="M2067 1513 c-18 -17 -1 -23 63 -23 56 0 70 3 70 15 0 12 -14 15 -63
15 -35 0 -67 -3 -70 -7z"/>
<path d="M2210 1505 c0 -12 14 -15 71 -15 52 0 70 3 67 13 -3 7 -29 13 -71 15
-55 2 -67 0 -67 -13z"/>
<path d="M622 1353 c70 -133 140 -226 137 -180 -1 25 -106 182 -123 185 -10 2
-16 0 -14 -5z"/>
<path d="M935 1314 c74 -129 91 -154 102 -154 7 0 13 6 12 13 -1 25 -106 182
-124 186 -16 3 -15 -3 10 -45z"/>
<path d="M1202 1353 c2 -4 29 -50 58 -100 48 -81 58 -93 82 -93 23 0 34 12 82
94 31 52 56 97 56 100 0 3 -6 6 -14 6 -8 0 -38 -40 -67 -90 -31 -52 -57 -86
-62 -81 -5 5 -30 44 -56 87 -26 44 -55 81 -65 82 -10 2 -16 0 -14 -5z"/>
<path d="M1688 1268 l-55 -91 -72 2 c-59 2 -71 0 -71 -13 0 -13 12 -16 63 -16
98 0 102 3 162 106 31 52 57 94 59 94 2 0 29 -42 59 -94 62 -103 66 -106 165
-106 50 0 62 3 62 16 0 13 -12 15 -72 13 l-73 -2 -55 91 c-50 85 -57 92 -86
92 -29 0 -36 -7 -86 -92z"/>
<path d="M2062 1353 c70 -133 140 -226 137 -180 -1 25 -106 182 -123 185 -10
2 -16 0 -14 -5z"/>
<path d="M2408 1268 l-55 -91 -72 2 c-59 2 -71 0 -71 -13 0 -13 12 -16 63 -16
98 0 102 3 162 106 31 52 57 94 59 94 2 0 29 -43 60 -95 33 -54 64 -95 72 -95
19 0 20 -3 -46 108 -50 85 -57 92 -86 92 -29 0 -36 -7 -86 -92z"/>
<path d="M2782 1353 c70 -133 140 -226 137 -180 -1 25 -106 182 -123 185 -10
2 -16 0 -14 -5z"/>
<path d="M3559 1270 l-53 -90 -71 -1 c-38 -1 -103 0 -142 1 -61 1 -73 -1 -73
-14 0 -14 18 -16 133 -16 72 0 142 3 155 6 15 4 40 37 77 100 30 51 55 95 55
98 0 3 -6 6 -14 6 -8 0 -38 -40 -67 -90z"/>
<path d="M1060 1165 c0 -12 14 -15 71 -15 52 0 70 3 67 13 -3 7 -29 13 -71 15
-55 2 -67 0 -67 -13z"/>
<path d="M2930 1165 c0 -12 24 -15 140 -15 116 0 140 3 140 15 0 12 -24 14
-140 14 -116 0 -140 -2 -140 -14z"/>
<path d="M821 920 c54 -90 63 -100 89 -100 26 0 35 10 85 94 30 52 55 97 55
100 0 3 -6 6 -14 6 -8 0 -38 -40 -67 -90 -29 -49 -56 -90 -60 -90 -3 0 -30 41
-60 90 -35 59 -59 90 -71 90 -14 0 -5 -21 43 -100z"/>
<path d="M1258 928 l-55 -91 -72 2 c-59 2 -71 0 -71 -13 0 -13 12 -16 63 -16
96 0 102 4 157 95 61 101 67 115 47 115 -8 0 -39 -41 -69 -92z"/>
<path d="M1650 983 c12 -21 39 -66 58 -100 32 -56 40 -63 67 -63 27 0 35 9 87
97 31 54 55 99 53 101 -12 13 -37 -16 -85 -97 l-54 -91 -31 50 c-16 27 -42 70
-57 95 -15 25 -35 45 -44 45 -14 0 -13 -5 6 -37z"/>
<path d="M2119 930 l-53 -89 -70 -3 c-44 -2 -71 -7 -74 -15 -3 -10 13 -13 60
-13 98 0 102 3 163 105 30 50 55 95 55 98 0 4 -6 7 -14 7 -8 0 -38 -40 -67
-90z"/>
<path d="M2665 974 c87 -152 89 -154 117 -154 23 0 34 12 82 93 31 52 56 97
56 100 0 4 -6 7 -14 7 -8 0 -38 -40 -67 -90 -31 -52 -57 -86 -62 -81 -5 5 -30
44 -56 87 -27 45 -55 80 -66 83 -16 3 -15 -3 10 -45z"/>
<path d="M3418 928 l-55 -91 -72 2 c-59 2 -71 0 -71 -13 0 -13 12 -16 63 -16
96 0 102 4 157 95 61 101 67 115 47 115 -8 0 -39 -41 -69 -92z"/>
<path d="M2930 825 c0 -12 24 -15 140 -15 116 0 140 3 140 15 0 12 -24 14
-140 14 -116 0 -140 -2 -140 -14z"/>
</g>
</svg>
